<svg width="1835" height="275" viewBox="0 0 1835 275" fill="none" xmlns="http://www.w3.org/2000/svg">
<path d="M255.238 26.8161C254.161 25.9545 252.546 25.9545 250.392 26.8161C248.238 27.4623 245.977 28.5392 243.607 30.047C241.453 31.3393 239.407 32.7394 237.469 34.2471C235.53 35.7548 234.13 36.8318 233.269 37.478C226.376 42.8627 219.807 48.6783 213.56 54.9246C207.529 60.9556 201.606 67.0942 195.79 73.3406C182.867 87.1256 170.482 101.234 158.636 115.665C147.004 130.096 135.373 144.743 123.742 159.605L90.1412 203.544C99.1876 204.621 108.126 205.591 116.957 206.452C126.004 207.529 135.05 208.606 144.097 209.683C181.359 213.56 218.622 217.114 255.885 220.345C293.147 223.576 330.518 224.653 367.996 223.576C376.396 223.145 384.473 222.284 392.227 220.991C399.981 219.914 407.843 218.299 415.812 216.145C417.751 215.714 419.905 215.714 422.274 216.145C424.644 216.791 426.474 217.76 427.767 219.053C429.274 220.56 430.028 222.176 430.028 223.899C430.244 225.837 429.167 227.884 426.797 230.038C425.505 231.545 423.674 232.73 421.305 233.592C419.151 234.668 417.105 235.422 415.166 235.853C403.535 239.515 391.366 241.346 378.658 241.346C366.165 241.561 353.995 241.453 342.149 241.023C328.794 240.807 315.548 240.376 302.409 239.73C289.486 239.084 276.347 238.222 262.993 237.145C235.207 235.207 207.529 232.838 179.959 230.038C152.389 227.238 124.711 224.222 96.926 220.991C93.9105 220.56 90.7873 220.13 87.5565 219.699C84.541 219.483 81.5255 219.16 78.51 218.73C74.4176 224.114 70.2175 229.499 65.9097 234.884C61.8172 240.269 57.6171 245.653 53.3093 251.038C52.0169 252.761 50.6169 254.7 49.1092 256.854C47.6014 259.008 45.986 261.054 44.2629 262.992C42.5397 265.146 40.7089 267.085 38.7704 268.808C36.8319 270.531 34.7857 271.823 32.6317 272.685C29.8317 273.762 27.1393 273.87 24.5546 273.008C22.1853 272.362 19.9237 271.177 17.7698 269.454C15.6159 267.731 13.6773 265.685 11.9542 263.316C10.4465 261.162 9.15412 259.008 8.07717 256.854C4.63091 250.177 2.3693 243.069 1.29235 235.53C0.430782 227.991 1.07696 221.099 3.23087 214.853C5.38478 208.606 9.15412 203.652 14.5389 199.991C20.1391 196.544 27.6778 195.467 37.155 196.76L70.756 201.283C74.2022 196.76 77.5408 192.236 80.7717 187.713C84.2179 183.19 87.7719 178.667 91.4335 174.144C102.418 159.712 113.511 145.497 124.711 131.496C135.912 117.28 147.327 103.172 158.959 89.1718C164.343 82.7101 169.836 76.1407 175.436 69.4635C181.036 62.7864 186.852 56.3247 192.883 50.0783C198.914 43.6166 205.16 37.5857 211.622 31.9855C218.299 26.1699 225.191 21.0005 232.299 16.4773C234.884 14.9696 237.684 13.5696 240.7 12.2772C243.715 10.7695 246.73 9.69251 249.746 9.04633C252.761 8.40017 255.777 8.40017 258.792 9.04633C261.808 9.69251 264.608 11.0926 267.193 13.2465C269.562 15.4004 270.639 17.7697 270.424 20.3544C270.424 22.9391 269.67 25.093 268.162 26.8161C266.87 28.5392 264.931 29.6162 262.346 30.047C259.977 30.4778 257.715 29.5085 255.562 27.1392L255.238 26.8161ZM59.4479 215.822L32.9548 212.914C21.7545 211.622 16.3697 216.683 16.8005 228.099C16.8005 229.822 17.0159 231.976 17.4467 234.561C17.8775 237.361 18.4159 240.161 19.0621 242.961C19.9237 245.761 21.0006 248.346 22.293 250.715C23.5853 253.084 25.2008 254.915 27.1393 256.208C32.7394 250.823 37.9088 244.684 42.6474 237.792C47.6014 231.115 52.5554 224.653 57.5094 218.406L59.4479 215.822ZM353.068 89.4949C353.068 91.8642 352.745 93.695 352.099 94.9874C351.453 96.2797 350.483 97.249 349.191 97.8952C347.899 98.3259 346.391 98.4336 344.668 98.2182C342.945 98.0029 341.222 97.6798 339.498 97.249C339.498 101.341 337.991 104.895 334.975 107.911C332.821 110.065 329.483 111.788 324.96 113.08C320.652 114.373 315.913 115.126 310.744 115.342C305.574 115.557 300.405 115.342 295.236 114.696C290.066 113.834 285.543 112.434 281.666 110.496C277.789 108.557 274.989 105.972 273.266 102.741C271.543 99.5106 271.65 95.5259 273.589 90.7873C275.096 86.6948 277.573 83.5717 281.02 81.4177C284.681 79.0484 288.666 77.3253 292.974 76.2484C297.497 75.1714 302.02 74.5252 306.544 74.3098C311.282 74.0944 315.482 74.0944 319.144 74.3098C321.298 74.3098 324.206 74.5252 327.867 74.956C331.744 75.3868 335.514 76.1407 339.175 77.2176C342.837 78.2946 345.96 79.8023 348.545 81.7408C351.345 83.6793 352.853 86.264 353.068 89.4949ZM270.358 149.912C273.158 150.127 275.312 150.881 276.82 152.174C278.327 153.251 279.297 154.758 279.727 156.697C280.374 158.42 280.589 160.359 280.374 162.512C280.158 164.666 279.835 166.82 279.404 168.974C281.343 168.543 283.174 168.328 284.897 168.328C286.835 168.113 288.451 167.79 289.743 167.359C295.128 166.066 300.62 164.451 306.22 162.512C313.328 160.143 320.436 157.882 327.544 155.728C334.867 153.358 342.298 151.635 349.837 150.558C351.991 150.343 354.253 150.558 356.622 151.204C359.207 151.851 361.253 152.928 362.761 154.435C364.484 155.943 365.345 157.774 365.345 159.928C365.561 161.866 364.268 163.913 361.468 166.066C359.961 167.143 358.345 167.682 356.622 167.682C355.114 167.682 353.499 167.79 351.776 168.005C348.545 168.436 345.314 168.974 342.083 169.62C338.852 170.267 335.729 171.02 332.714 171.882C326.252 173.605 319.79 175.436 313.328 177.374C307.082 179.313 300.836 181.359 294.589 183.513C290.928 184.805 286.62 186.206 281.666 187.713C276.927 189.436 272.512 189.652 268.419 188.359C265.835 187.282 264.004 185.775 262.927 183.836C261.635 182.113 260.881 180.175 260.665 178.021C260.234 175.651 260.234 173.282 260.665 170.913C261.096 168.543 261.635 166.282 262.281 164.128C261.419 162.836 260.988 161.328 260.988 159.605C260.988 157.882 261.311 156.374 261.958 155.081C262.604 153.574 263.681 152.389 265.188 151.528C266.481 150.451 268.204 149.912 270.358 149.912ZM327.867 98.8644C328.729 96.4951 328.19 94.4489 326.252 92.7258C325.821 92.5104 325.498 92.4027 325.283 92.4027C325.067 92.4027 324.852 92.295 324.636 92.0796C322.267 91.6488 319.252 91.218 315.59 90.7873C312.144 90.1411 308.482 89.818 304.605 89.818C300.943 89.818 297.497 90.3565 294.266 91.4334C291.035 92.295 288.666 93.8027 287.158 95.9566C287.158 96.172 287.051 96.3874 286.835 96.6028C287.266 98.3259 288.774 99.726 291.358 100.803C294.159 101.665 297.174 102.311 300.405 102.741C303.636 103.172 306.759 103.388 309.774 103.388C312.79 103.388 314.836 103.388 315.913 103.388C318.067 102.957 320.113 102.526 322.052 102.095C324.206 101.449 326.144 100.372 327.867 98.8644ZM349.438 165.097C346.854 162.512 345.561 160.035 345.561 157.666C345.561 155.297 346.315 153.466 347.823 152.174C349.331 150.666 351.161 149.804 353.315 149.589C355.469 149.158 357.516 149.697 359.454 151.204C362.254 153.574 366.131 155.081 371.085 155.728C376.039 156.374 380.993 157.02 385.947 157.666C390.901 158.097 395.317 158.959 399.194 160.251C403.286 161.328 405.871 163.589 406.948 167.036C414.917 164.666 422.994 162.62 431.179 160.897C439.364 158.959 446.795 157.235 453.472 155.728C456.488 155.081 460.042 154.328 464.134 153.466C468.227 152.389 472.427 151.42 476.734 150.558C481.042 149.697 485.242 149.266 489.335 149.266C493.427 149.051 497.089 149.374 500.32 150.235C502.043 150.881 503.335 151.851 504.197 153.143C505.274 154.435 505.92 155.943 506.135 157.666C506.566 159.174 506.458 160.682 505.812 162.189C505.381 163.697 504.412 164.989 502.904 166.066C500.751 167.79 497.951 168.543 494.504 168.328C491.273 168.113 488.366 168.22 485.781 168.651C471.565 170.374 457.349 172.851 443.133 176.082C429.133 179.313 415.348 183.19 401.778 187.713C399.84 188.359 397.255 189.436 394.024 190.944C391.009 192.667 387.886 194.067 384.655 195.144C381.639 196.221 378.732 196.652 375.931 196.437C373.131 196.437 370.977 195.144 369.47 192.56C368.393 190.406 367.962 188.359 368.177 186.421C368.608 184.482 369.47 182.759 370.762 181.252C372.27 179.528 373.993 178.128 375.931 177.051C377.87 175.759 379.916 174.79 382.07 174.144C379.701 173.713 377.008 173.39 373.993 173.174C370.977 172.744 367.962 172.313 364.947 171.882C361.931 171.236 359.023 170.482 356.223 169.62C353.423 168.543 351.161 167.036 349.438 165.097ZM543.977 149.589C545.054 150.02 546.023 150.558 546.885 151.204C547.746 151.635 548.5 152.174 549.146 152.82C553.454 152.389 557.762 153.035 562.07 154.758C566.378 157.128 568.639 159.712 568.855 162.512C569.07 165.097 568.316 167.897 566.593 170.913C571.332 170.267 576.07 169.19 580.809 167.682C585.763 166.174 590.609 164.451 595.348 162.512C600.086 160.574 604.717 158.635 609.24 156.697C613.979 154.758 618.502 153.143 622.81 151.851C625.179 151.204 627.656 150.558 630.241 149.912C633.041 149.266 635.626 149.804 637.995 151.528C639.934 153.035 641.118 154.651 641.549 156.374C641.98 158.097 641.872 159.82 641.226 161.543C640.58 163.051 639.503 164.451 637.995 165.743C636.487 167.036 634.764 167.79 632.826 168.005C625.933 169.082 619.148 171.128 612.471 174.144C605.794 176.944 599.225 179.421 592.763 181.575C589.747 182.652 586.517 183.836 583.07 185.129C579.624 186.421 576.07 187.498 572.409 188.359C568.747 189.221 565.085 189.652 561.424 189.652C557.762 189.867 554.316 189.436 551.085 188.359C547.423 186.636 545.054 184.482 543.977 181.898C543.115 179.098 543.223 176.19 544.3 173.174C539.992 173.821 535.684 174.79 531.377 176.082C525.776 177.805 520.176 179.744 514.576 181.898C509.191 184.052 503.699 185.667 498.099 186.744C494.437 187.39 490.668 187.39 486.791 186.744C482.914 186.098 480.006 183.944 478.067 180.282C475.698 175.759 475.59 171.559 477.744 167.682C479.683 163.589 482.806 160.143 487.114 157.343C491.206 154.328 495.729 151.958 500.683 150.235C505.637 148.297 509.73 147.112 512.961 146.681C518.345 146.035 523.622 146.035 528.792 146.681C533.961 147.112 539.023 148.081 543.977 149.589ZM501.329 168.651C503.483 168.22 505.637 167.682 507.791 167.036C509.945 166.39 512.099 165.636 514.253 164.774C509.084 165.42 504.776 166.713 501.329 168.651ZM1238.25 167.036C1230.93 167.036 1223.5 168.113 1215.96 170.267C1208.64 172.42 1201.32 175.113 1193.99 178.344C1186.88 181.359 1179.78 184.59 1172.67 188.036C1165.78 191.698 1159.1 194.929 1152.64 197.729C1144.24 201.391 1135.84 204.945 1127.44 208.391C1119.04 212.052 1110.31 214.96 1101.27 217.114C1097.6 217.976 1093.62 218.514 1089.31 218.73C1085.22 218.945 1081.56 217.868 1078.33 215.499C1074.45 212.914 1072.19 209.575 1071.54 205.483C1070.9 201.391 1071.22 196.975 1072.51 192.236C1074.02 187.498 1076.17 182.652 1078.97 177.698C1081.99 172.528 1085.11 167.682 1088.34 163.159C1091.79 158.42 1095.02 154.22 1098.04 150.558C1101.05 146.681 1103.42 143.666 1105.14 141.512C1111.17 133.327 1117.2 125.142 1123.24 116.957C1129.48 108.557 1135.62 100.157 1141.65 91.7565C1145.53 86.3717 1149.62 80.7716 1153.93 74.956C1158.45 68.9251 1161.9 62.6787 1164.27 56.217C1162.54 56.6478 1160.93 57.1862 1159.42 57.8324C1158.13 58.2632 1156.84 58.694 1155.54 59.1248C1143.7 64.0788 1132.39 70.2174 1121.62 77.5407C1111.07 84.864 1100.62 92.295 1090.28 99.8337C1079.73 107.588 1069.28 115.557 1058.94 123.742C1048.6 131.927 1038.26 140.112 1027.93 148.297C1017.59 156.482 1007.03 164.559 996.263 172.528C985.709 180.282 974.831 187.498 963.631 194.175C961.693 195.467 958.892 196.867 955.231 198.375C951.785 199.883 948.338 200.852 944.892 201.283C941.446 201.714 938.538 201.067 936.169 199.344C933.799 197.837 932.83 194.606 933.261 189.652C933.476 185.344 934.769 181.036 937.138 176.728C939.723 172.205 942.63 167.79 945.861 163.482C949.092 159.174 952.431 155.081 955.877 151.204C959.539 147.327 962.662 143.881 965.247 140.866C974.078 130.096 982.801 119.542 991.417 109.203C1000.03 98.649 1008.54 87.8795 1016.94 76.8945C1023.83 67.8481 1030.83 58.5863 1037.94 49.1091C1045.26 39.6319 1051.08 29.4008 1055.39 18.4159C1048.5 19.062 1041.39 20.6775 1034.06 23.2622C1026.96 25.6315 1019.85 28.4315 1012.74 31.6624C1005.85 34.8933 999.063 38.3395 992.386 42.0012C985.709 45.4474 979.462 48.6783 973.647 51.6938C939.615 69.7866 907.091 89.1718 876.075 109.849C860.566 120.188 845.381 130.85 830.519 141.835C815.873 152.604 801.765 164.128 788.195 176.405C782.595 181.79 776.995 187.282 771.395 192.883C766.01 198.483 761.271 204.729 757.179 211.622C756.102 213.345 754.702 215.822 752.979 219.053C751.471 222.499 751.363 225.407 752.656 227.776C754.379 230.361 755.563 233.053 756.209 235.853C756.856 238.869 755.348 241.346 751.686 243.284C749.102 244.576 746.732 244.792 744.578 243.93C742.64 243.069 740.809 241.669 739.086 239.73C737.578 237.792 736.393 235.53 735.532 232.945C734.67 230.361 734.132 228.099 733.916 226.161C733.701 222.068 734.24 217.976 735.532 213.883C736.824 210.006 738.547 206.129 740.701 202.252C743.071 198.59 745.655 195.037 748.455 191.59C751.255 188.359 753.948 185.344 756.533 182.544C768.594 169.19 781.626 156.912 795.626 145.712C809.626 134.512 823.842 123.742 838.273 113.403C869.505 91.218 901.922 70.6482 935.523 51.6938C952.538 42.0012 969.877 32.7394 987.54 23.9083C1005.42 14.8619 1023.83 7.86168 1042.79 2.90769C1044.73 2.26152 1047.1 1.72305 1049.9 1.29226C1052.7 0.646093 1055.39 0.32301 1057.97 0.32301C1060.77 0.107609 1063.36 0.322997 1065.73 0.969175C1068.31 1.61535 1070.47 3.0154 1072.19 5.1693C1075.2 8.83094 1076.28 13.0311 1075.42 17.7697C1074.56 22.5083 1072.83 27.3546 1070.25 32.3086C1067.66 37.0472 1064.76 41.5704 1061.53 45.8782C1058.3 50.186 1055.71 53.6323 1053.77 56.217C1045.16 68.2789 1036.22 79.91 1026.96 91.1103C1017.91 102.311 1008.76 113.619 999.494 125.034C994.97 130.85 990.34 136.666 985.601 142.481C981.078 148.081 976.662 153.789 972.354 159.605C970.201 162.405 967.939 165.205 965.57 168.005C963.416 170.805 961.262 173.713 959.108 176.728C966.216 172.636 973.001 167.79 979.462 162.189C986.139 156.374 992.493 151.204 998.524 146.681C1008.86 138.712 1019.09 130.85 1029.22 123.096C1039.34 115.126 1049.68 107.157 1060.23 99.1875C1070.57 91.6488 1080.8 84.2178 1090.93 76.8945C1101.27 69.3558 1111.93 62.2479 1122.91 55.5708C1129.16 51.9092 1135.51 48.3552 1141.97 44.909C1148.65 41.4627 1155.54 39.2011 1162.65 38.1241C1165.67 37.6934 1168.58 37.5857 1171.38 37.801C1174.39 37.801 1177.08 38.878 1179.45 41.0319C1183.11 44.2628 1184.62 48.2475 1183.98 52.9861C1183.55 57.5093 1182.04 62.2479 1179.45 67.2019C1177.08 71.9405 1174.18 76.5714 1170.73 81.0947C1167.5 85.4025 1164.91 88.8487 1162.98 91.4334C1156.08 101.126 1148.98 110.603 1141.65 119.865C1134.54 128.911 1127.54 138.281 1120.65 147.974C1114.19 156.805 1108.05 165.851 1102.24 175.113C1101.37 176.405 1100.19 178.128 1098.68 180.282C1097.39 182.221 1095.99 184.267 1094.48 186.421C1093.19 188.79 1092 191.16 1090.93 193.529C1090.07 195.898 1089.53 198.052 1089.31 199.991C1098.14 198.267 1106.76 195.898 1115.16 192.883C1123.77 189.867 1132.28 186.529 1140.68 182.867C1149.08 179.421 1157.48 175.759 1165.88 171.882C1174.28 168.005 1182.68 164.451 1191.08 161.22C1198.19 158.205 1205.41 155.512 1212.73 153.143C1220.27 150.774 1227.92 149.374 1235.67 148.943C1238.9 148.727 1241.38 149.589 1243.1 151.528C1245.04 153.251 1246.12 155.297 1246.33 157.666C1246.76 159.82 1246.33 161.866 1245.04 163.805C1243.75 165.743 1241.49 166.82 1238.25 167.036ZM1282.6 149.589C1283.67 150.02 1284.64 150.558 1285.5 151.204C1286.37 151.635 1287.12 152.174 1287.77 152.82C1292.07 152.389 1296.38 153.035 1300.69 154.758C1305 157.128 1307.26 159.712 1307.47 162.512C1307.69 165.097 1306.93 167.897 1305.21 170.913C1309.95 170.267 1314.69 169.19 1319.43 167.682C1324.38 166.174 1329.23 164.451 1333.97 162.512C1338.71 160.574 1343.34 158.635 1347.86 156.697C1352.6 154.758 1357.12 153.143 1361.43 151.851C1363.8 151.204 1366.28 150.558 1368.86 149.912C1371.66 149.266 1374.24 149.804 1376.61 151.528C1378.55 153.035 1379.74 154.651 1380.17 156.374C1380.6 158.097 1380.49 159.82 1379.84 161.543C1379.2 163.051 1378.12 164.451 1376.61 165.743C1375.11 167.036 1373.38 167.79 1371.44 168.005C1364.55 169.082 1357.77 171.128 1351.09 174.144C1344.41 176.944 1337.84 179.421 1331.38 181.575C1328.37 182.652 1325.14 183.836 1321.69 185.129C1318.24 186.421 1314.69 187.498 1311.03 188.359C1307.37 189.221 1303.7 189.652 1300.04 189.652C1296.38 189.867 1292.93 189.436 1289.7 188.359C1286.04 186.636 1283.67 184.482 1282.6 181.898C1281.73 179.098 1281.84 176.19 1282.92 173.174C1278.61 173.821 1274.3 174.79 1270 176.082C1264.4 177.805 1258.8 179.744 1253.19 181.898C1247.81 184.052 1242.32 185.667 1236.72 186.744C1233.06 187.39 1229.29 187.39 1225.41 186.744C1221.53 186.098 1218.62 183.944 1216.69 180.282C1214.32 175.759 1214.21 171.559 1216.36 167.682C1218.3 163.589 1221.42 160.143 1225.73 157.343C1229.82 154.328 1234.35 151.958 1239.3 150.235C1244.26 148.297 1248.35 147.112 1251.58 146.681C1256.96 146.035 1262.24 146.035 1267.41 146.681C1272.58 147.112 1277.64 148.081 1282.6 149.589ZM1239.95 168.651C1242.1 168.22 1244.26 167.682 1246.41 167.036C1248.56 166.39 1250.72 165.636 1252.87 164.774C1247.7 165.42 1243.39 166.713 1239.95 168.651ZM1372.14 149.912C1376.45 150.127 1379.25 151.42 1380.54 153.789C1381.83 156.158 1382.26 158.959 1381.83 162.189C1387.43 157.451 1392.06 152.066 1395.73 146.035C1396.59 144.743 1397.34 143.343 1397.99 141.835C1398.85 140.327 1399.71 138.927 1400.57 137.635C1401.65 136.342 1402.83 135.373 1404.13 134.727C1405.42 133.865 1407.03 133.542 1408.97 133.758C1412.2 134.189 1414.25 135.589 1415.11 137.958C1415.97 140.327 1416.4 142.804 1416.4 145.389C1417.48 147.543 1420.28 149.051 1424.8 149.912C1429.33 150.558 1434.28 150.989 1439.67 151.204C1445.27 151.204 1450.54 151.097 1455.5 150.881C1460.45 150.451 1463.9 150.235 1465.84 150.235C1467.77 150.235 1469.93 150.127 1472.3 149.912C1474.88 149.481 1477.47 149.158 1480.05 148.943C1482.64 148.727 1485.11 148.835 1487.48 149.266C1489.85 149.481 1491.9 150.235 1493.62 151.528C1495.34 152.82 1496.42 154.435 1496.85 156.374C1497.5 158.097 1497.5 159.82 1496.85 161.543C1496.21 163.266 1495.13 164.774 1493.62 166.066C1492.33 167.143 1490.61 167.682 1488.45 167.682C1485.01 168.543 1481.24 168.867 1477.14 168.651C1473.27 168.22 1469.61 168.113 1466.16 168.328C1460.34 168.328 1454.53 168.328 1448.71 168.328C1442.9 168.328 1437.08 168.113 1431.27 167.682C1427.17 167.251 1422.87 166.497 1418.34 165.42C1413.82 164.343 1409.83 162.62 1406.39 160.251C1404.02 163.051 1401.54 165.851 1398.96 168.651C1396.37 171.236 1393.79 173.713 1391.2 176.082C1388.62 178.451 1385.93 180.821 1383.13 183.19C1380.33 185.775 1377.1 187.498 1373.43 188.359C1368.91 189.652 1365.03 188.683 1361.8 185.452C1360.29 183.729 1359.43 182.005 1359.22 180.282C1359 178.344 1359.22 176.405 1359.86 174.467C1360.29 172.528 1360.94 170.59 1361.8 168.651C1362.45 166.713 1363.09 164.882 1363.74 163.159C1362.66 160.359 1362.88 157.451 1364.39 154.435C1365.89 151.42 1368.48 149.912 1372.14 149.912ZM1572.22 89.4949C1572.22 91.8642 1571.89 93.695 1571.25 94.9874C1570.6 96.2797 1569.63 97.249 1568.34 97.8952C1567.05 98.3259 1565.54 98.4336 1563.81 98.2182C1562.09 98.0029 1560.37 97.6798 1558.65 97.249C1558.65 101.341 1557.14 104.895 1554.12 107.911C1551.97 110.065 1548.63 111.788 1544.11 113.08C1539.8 114.373 1535.06 115.126 1529.89 115.342C1524.72 115.557 1519.55 115.342 1514.38 114.696C1509.21 113.834 1504.69 112.434 1500.81 110.496C1496.94 108.557 1494.14 105.972 1492.41 102.741C1490.69 99.5106 1490.8 95.5259 1492.74 90.7873C1494.24 86.6948 1496.72 83.5717 1500.17 81.4177C1503.83 79.0484 1507.81 77.3253 1512.12 76.2484C1516.64 75.1714 1521.17 74.5252 1525.69 74.3098C1530.43 74.0944 1534.63 74.0944 1538.29 74.3098C1540.45 74.3098 1543.35 74.5252 1547.01 74.956C1550.89 75.3868 1554.66 76.1407 1558.32 77.2176C1561.98 78.2946 1565.11 79.8023 1567.69 81.7408C1570.49 83.6793 1572 86.264 1572.22 89.4949ZM1489.51 149.912C1492.31 150.127 1494.46 150.881 1495.97 152.174C1497.47 153.251 1498.44 154.758 1498.87 156.697C1499.52 158.42 1499.74 160.359 1499.52 162.512C1499.31 164.666 1498.98 166.82 1498.55 168.974C1500.49 168.543 1502.32 168.328 1504.04 168.328C1505.98 168.113 1507.6 167.79 1508.89 167.359C1514.28 166.066 1519.77 164.451 1525.37 162.512C1532.48 160.143 1539.58 157.882 1546.69 155.728C1554.01 153.358 1561.45 151.635 1568.98 150.558C1571.14 150.343 1573.4 150.558 1575.77 151.204C1578.35 151.851 1580.4 152.928 1581.91 154.435C1583.63 155.943 1584.49 157.774 1584.49 159.928C1584.71 161.866 1583.42 163.913 1580.62 166.066C1579.11 167.143 1577.49 167.682 1575.77 167.682C1574.26 167.682 1572.65 167.79 1570.92 168.005C1567.69 168.436 1564.46 168.974 1561.23 169.62C1558 170.267 1554.88 171.02 1551.86 171.882C1545.4 173.605 1538.94 175.436 1532.48 177.374C1526.23 179.313 1519.98 181.359 1513.74 183.513C1510.07 184.805 1505.77 186.206 1500.81 187.713C1496.07 189.436 1491.66 189.652 1487.57 188.359C1484.98 187.282 1483.15 185.775 1482.07 183.836C1480.78 182.113 1480.03 180.175 1479.81 178.021C1479.38 175.651 1479.38 173.282 1479.81 170.913C1480.24 168.543 1480.78 166.282 1481.43 164.128C1480.57 162.836 1480.14 161.328 1480.14 159.605C1480.14 157.882 1480.46 156.374 1481.1 155.081C1481.75 153.574 1482.83 152.389 1484.34 151.528C1485.63 150.451 1487.35 149.912 1489.51 149.912ZM1547.01 98.8644C1547.88 96.4951 1547.34 94.4489 1545.4 92.7258C1544.97 92.5104 1544.65 92.4027 1544.43 92.4027C1544.21 92.4027 1544 92.295 1543.78 92.0796C1541.41 91.6488 1538.4 91.218 1534.74 90.7873C1531.29 90.1411 1527.63 89.818 1523.75 89.818C1520.09 89.818 1516.64 90.3565 1513.41 91.4334C1510.18 92.295 1507.81 93.8027 1506.31 95.9566C1506.31 96.172 1506.2 96.3874 1505.98 96.6028C1506.41 98.3259 1507.92 99.726 1510.51 100.803C1513.31 101.665 1516.32 102.311 1519.55 102.741C1522.78 103.172 1525.91 103.388 1528.92 103.388C1531.94 103.388 1533.98 103.388 1535.06 103.388C1537.21 102.957 1539.26 102.526 1541.2 102.095C1543.35 101.449 1545.29 100.372 1547.01 98.8644ZM1573.43 149.912C1575.15 149.912 1576.77 150.235 1578.28 150.881C1580 151.312 1581.4 152.174 1582.48 153.466C1584.42 155.835 1585.28 158.097 1585.06 160.251C1585.06 162.189 1584.52 164.128 1583.45 166.066C1589.05 164.989 1594.65 163.697 1600.25 162.189C1605.85 160.682 1611.45 159.174 1617.05 157.666C1619.63 157.02 1622.43 156.266 1625.45 155.405C1628.46 154.543 1631.48 153.897 1634.5 153.466C1637.73 153.035 1640.85 152.928 1643.86 153.143C1647.1 153.143 1650 153.789 1652.59 155.081C1656.25 156.805 1658.4 158.851 1659.05 161.22C1659.7 163.589 1659.48 166.066 1658.4 168.651C1661.42 167.79 1664.43 167.036 1667.45 166.39C1670.47 165.528 1673.48 164.559 1676.5 163.482C1682.31 161.759 1688.13 160.035 1693.94 158.312C1699.97 156.374 1706.01 154.543 1712.04 152.82C1714.84 151.958 1718.07 151.097 1721.73 150.235C1725.61 149.158 1728.94 149.589 1731.74 151.528C1733.47 152.82 1734.54 154.435 1734.98 156.374C1735.41 158.097 1735.3 159.928 1734.65 161.866C1734.22 163.589 1733.25 165.097 1731.74 166.39C1730.24 167.466 1728.51 168.005 1726.57 168.005C1718.39 168.651 1710.1 170.59 1701.7 173.821C1693.3 177.051 1685.22 179.851 1677.47 182.221C1675.1 182.867 1672.3 183.729 1669.07 184.805C1666.05 185.882 1662.93 186.852 1659.7 187.713C1656.47 188.575 1653.23 189.113 1650 189.329C1646.77 189.544 1643.86 189.113 1641.28 188.036C1638.26 186.744 1636.11 184.59 1634.82 181.575C1633.74 178.344 1633.63 175.113 1634.5 171.882C1629.76 172.313 1625.13 173.067 1620.6 174.144C1616.08 175.221 1611.56 176.298 1607.03 177.374C1604.02 178.236 1600.79 179.205 1597.34 180.282C1594.11 181.359 1590.77 182.436 1587.32 183.513C1584.09 184.59 1580.76 185.452 1577.31 186.098C1574.08 186.744 1570.85 186.959 1567.62 186.744C1565.68 186.529 1563.74 185.882 1561.8 184.805C1559.22 183.082 1557.71 181.252 1557.28 179.313C1556.85 177.374 1557.06 175.436 1557.92 173.497C1558.57 171.559 1559.65 169.62 1561.15 167.682C1562.45 165.743 1563.74 163.913 1565.03 162.189C1564.17 159.389 1564.49 156.697 1566 154.112C1567.29 151.312 1569.77 149.912 1573.43 149.912ZM1825.62 167.682C1814.64 167.897 1803.44 168.22 1792.02 168.651C1780.6 168.867 1769.4 167.574 1758.42 164.774C1757.56 164.774 1756.7 164.559 1755.83 164.128C1754.54 167.79 1752.6 171.344 1750.02 174.79C1747.65 178.021 1744.96 180.821 1741.94 183.19C1738.93 185.559 1735.59 187.282 1731.93 188.359C1728.48 189.436 1725.03 189.544 1721.59 188.683C1718.36 187.821 1715.99 186.206 1714.48 183.836C1712.76 181.467 1711.79 178.775 1711.57 175.759C1711.36 172.744 1711.79 169.728 1712.86 166.713C1713.73 163.697 1715.02 161.005 1716.74 158.635C1719.54 155.189 1723.09 152.604 1727.4 150.881C1731.71 149.158 1736.02 148.943 1740.33 150.235C1740.76 147.22 1742.48 144.85 1745.5 143.127C1748.51 141.404 1751.74 141.62 1755.19 143.773C1758.42 145.712 1761.87 147.22 1765.53 148.297C1769.4 149.158 1773.39 149.697 1777.48 149.912C1781.57 150.127 1785.56 150.235 1789.44 150.235C1793.53 150.02 1797.4 149.912 1801.07 149.912C1805.37 149.912 1810.01 149.697 1814.96 149.266C1819.91 148.62 1824.44 148.943 1828.53 150.235C1830.9 151.097 1832.51 152.497 1833.38 154.435C1834.45 156.374 1834.78 158.312 1834.34 160.251C1834.13 162.189 1833.27 163.913 1831.76 165.42C1830.25 166.928 1828.21 167.682 1825.62 167.682ZM1729.02 171.882C1729.66 171.236 1730.96 170.913 1732.9 170.913V168.005C1732.46 168.436 1731.82 168.974 1730.96 169.62C1730.1 170.051 1729.45 170.805 1729.02 171.882Z" fill="black"/>
</svg>
